<svg width="50" height="50" viewBox="0 0 50 50" fill="none" xmlns="http://www.w3.org/2000/svg">
<circle cx="25" cy="25" r="25" fill="#2746C7"/>
<path d="M42.4263 24.5386C42.139 21.2147 39.3271 18.6047 35.8964 18.6047C33.6858 18.6047 31.7317 19.6907 30.5468 21.3505C29.8483 22.3314 29.4106 23.5051 29.3487 24.7882C29.3443 24.8889 29.3399 24.994 29.3399 25.0947C29.3399 27.3676 27.483 29.2069 25.1929 29.2069C25.1884 29.2069 25.1884 29.2069 25.1884 29.2069H25.184C22.8983 29.2069 21.037 27.3676 21.037 25.0947C21.037 24.994 21.0326 24.8889 21.0282 24.7882C20.9707 23.5051 20.533 22.3314 19.8301 21.3505C18.6585 19.6907 16.7043 18.6047 14.4938 18.6047C11.063 18.6047 8.2512 21.2147 7.96383 24.5386C7.96383 24.5386 7.94172 24.8057 7.94614 24.8714C7.99035 25.4889 8.5032 25.9837 9.13984 25.9837C9.80743 25.9837 10.3203 25.4407 10.3424 24.7926C10.422 23.7284 10.9127 22.7781 11.6554 22.0949C12.4026 21.4118 13.3974 20.9914 14.4894 20.9914C16.6734 20.9914 18.4639 22.6686 18.6231 24.7926L18.6408 25.1254C18.6452 26.5136 19.0873 27.7924 19.8389 28.8434C21.0238 30.5031 22.9823 31.5892 25.1884 31.5892C25.1929 31.5892 25.1929 31.5892 25.1929 31.5892H25.1973C27.4034 31.5892 29.362 30.5031 30.5468 28.8434C31.2984 27.7924 31.7405 26.5136 31.7449 25.1254L31.7626 24.7926C31.9218 22.6642 33.7123 20.9914 35.8964 20.9914C36.9884 20.9914 37.9875 21.4118 38.7303 22.0949C39.473 22.7781 39.9638 23.7284 40.0434 24.7926C40.0699 25.4407 40.5827 25.9837 41.2459 25.9837C41.8825 25.9837 42.3954 25.4932 42.4396 24.8714C42.4484 24.8057 42.4263 24.5386 42.4263 24.5386Z" fill="white"/>
</svg>
